<?xml version="1.0" encoding="UTF-8" standalone="no"?>
<!DOCTYPE svg PUBLIC "-//W3C//DTD SVG 1.1//EN"
 "http://www.w3.org/Graphics/SVG/1.1/DTD/svg11.dtd">
<!-- Generated by graphviz version 2.43.0 (0)
 -->
<!-- Title: pastafarianism Pages: 1 -->
<svg width="384pt" height="188pt"
 viewBox="0.00 0.00 383.89 188.00" xmlns="http://www.w3.org/2000/svg" xmlns:xlink="http://www.w3.org/1999/xlink">
<g id="graph0" class="graph" transform="scale(1 1) rotate(0) translate(4 184)">
<title>pastafarianism</title>
<polygon fill="white" stroke="transparent" points="-4,4 -4,-184 379.89,-184 379.89,4 -4,4"/>
<!-- Fallback -->
<g id="node1" class="node">
<title>Fallback</title>
<polygon fill="cyan" stroke="black" points="176.62,-154.54 176.62,-169.46 156.13,-180 127.14,-180 106.64,-169.46 106.64,-154.54 127.14,-144 156.13,-144 176.62,-154.54"/>
<text text-anchor="middle" x="141.63" y="-159.8" font-family="Times,serif" font-size="9.00">Fallback</text>
</g>
<!-- 0 at pos (0.0, 0.05, 0.0)? -->
<g id="node2" class="node">
<title>0 at pos (0.0, 0.05, 0.0)?</title>
<ellipse fill="gray" stroke="black" cx="75.63" cy="-90" rx="75.77" ry="18"/>
<text text-anchor="middle" x="75.63" y="-87.8" font-family="Times,serif" font-size="9.00">0 at pos (0.0, 0.05, 0.0)?</text>
</g>
<!-- Fallback&#45;&gt;0 at pos (0.0, 0.05, 0.0)? -->
<g id="edge1" class="edge">
<title>Fallback&#45;&gt;0 at pos (0.0, 0.05, 0.0)?</title>
<path fill="none" stroke="black" d="M125.99,-144.41C117.81,-135.73 107.64,-124.95 98.58,-115.34"/>
<polygon fill="black" stroke="black" points="101.03,-112.83 91.62,-107.96 95.93,-117.63 101.03,-112.83"/>
</g>
<!-- Sequence -->
<g id="node3" class="node">
<title>Sequence</title>
<polygon fill="cyan" stroke="black" points="246.62,-82.54 246.62,-97.46 223.78,-108 191.48,-108 168.64,-97.46 168.64,-82.54 191.48,-72 223.78,-72 246.62,-82.54"/>
<text text-anchor="middle" x="207.63" y="-87.8" font-family="Times,serif" font-size="9.00">Sequence</text>
</g>
<!-- Fallback&#45;&gt;Sequence -->
<g id="edge2" class="edge">
<title>Fallback&#45;&gt;Sequence</title>
<path fill="none" stroke="black" d="M157.27,-144.41C165.34,-135.86 175.33,-125.26 184.28,-115.77"/>
<polygon fill="black" stroke="black" points="186.87,-118.12 191.18,-108.45 181.78,-113.32 186.87,-118.12"/>
</g>
<!-- pick 1! -->
<g id="node4" class="node">
<title>pick 1!</title>
<ellipse fill="gray" stroke="black" cx="78.63" cy="-18" rx="28.08" ry="18"/>
<text text-anchor="middle" x="78.63" y="-15.8" font-family="Times,serif" font-size="9.00">pick 1!</text>
</g>
<!-- Sequence&#45;&gt;pick 1! -->
<g id="edge3" class="edge">
<title>Sequence&#45;&gt;pick 1!</title>
<path fill="none" stroke="black" d="M183.07,-75.67C161.86,-64.16 131.17,-47.51 108.54,-35.23"/>
<polygon fill="black" stroke="black" points="110.15,-32.12 99.69,-30.43 106.81,-38.27 110.15,-32.12"/>
</g>
<!-- place on 0! -->
<g id="node5" class="node">
<title>place on 0!</title>
<ellipse fill="gray" stroke="black" cx="164.63" cy="-18" rx="39.02" ry="18"/>
<text text-anchor="middle" x="164.63" y="-15.8" font-family="Times,serif" font-size="9.00">place on 0!</text>
</g>
<!-- Sequence&#45;&gt;place on 0! -->
<g id="edge4" class="edge">
<title>Sequence&#45;&gt;place on 0!</title>
<path fill="none" stroke="black" d="M197,-71.7C191.93,-63.44 185.76,-53.39 180.17,-44.3"/>
<polygon fill="black" stroke="black" points="183.06,-42.31 174.84,-35.62 177.1,-45.98 183.06,-42.31"/>
</g>
<!-- pick 2! -->
<g id="node6" class="node">
<title>pick 2!</title>
<ellipse fill="gray" stroke="black" cx="250.63" cy="-18" rx="28.08" ry="18"/>
<text text-anchor="middle" x="250.63" y="-15.8" font-family="Times,serif" font-size="9.00">pick 2!</text>
</g>
<!-- Sequence&#45;&gt;pick 2! -->
<g id="edge5" class="edge">
<title>Sequence&#45;&gt;pick 2!</title>
<path fill="none" stroke="black" d="M218.26,-71.7C223.41,-63.32 229.69,-53.1 235.34,-43.9"/>
<polygon fill="black" stroke="black" points="238.46,-45.5 240.72,-35.14 232.5,-41.83 238.46,-45.5"/>
</g>
<!-- place on 1! -->
<g id="node7" class="node">
<title>place on 1!</title>
<ellipse fill="gray" stroke="black" cx="336.63" cy="-18" rx="39.02" ry="18"/>
<text text-anchor="middle" x="336.63" y="-15.8" font-family="Times,serif" font-size="9.00">place on 1!</text>
</g>
<!-- Sequence&#45;&gt;place on 1! -->
<g id="edge6" class="edge">
<title>Sequence&#45;&gt;place on 1!</title>
<path fill="none" stroke="black" d="M232.2,-75.67C252.29,-64.77 280.89,-49.25 303.08,-37.21"/>
<polygon fill="black" stroke="black" points="305.04,-40.13 312.16,-32.28 301.7,-33.97 305.04,-40.13"/>
</g>
</g>
</svg>
