<?xml version="1.0" encoding="UTF-8" standalone="no"?>
<!DOCTYPE svg PUBLIC "-//W3C//DTD SVG 1.1//EN"
 "http://www.w3.org/Graphics/SVG/1.1/DTD/svg11.dtd">
<!-- Generated by graphviz version 2.43.0 (0)
 -->
<!-- Title: pastafarianism Pages: 1 -->
<svg width="341pt" height="116pt"
 viewBox="0.00 0.00 340.73 116.00" xmlns="http://www.w3.org/2000/svg" xmlns:xlink="http://www.w3.org/1999/xlink">
<g id="graph0" class="graph" transform="scale(1 1) rotate(0) translate(4 112)">
<title>pastafarianism</title>
<polygon fill="white" stroke="transparent" points="-4,4 -4,-112 336.73,-112 336.73,4 -4,4"/>
<!-- Sequence -->
<g id="node1" class="node">
<title>Sequence</title>
<polygon fill="cyan" stroke="black" points="199.76,-82.54 199.76,-97.46 176.92,-108 144.61,-108 121.77,-97.46 121.77,-82.54 144.61,-72 176.92,-72 199.76,-82.54"/>
<text text-anchor="middle" x="160.77" y="-87.8" font-family="Times,serif" font-size="9.00">Sequence</text>
</g>
<!-- apply force 0! -->
<g id="node2" class="node">
<title>apply force 0!</title>
<ellipse fill="gray" stroke="black" cx="46.77" cy="-18" rx="46.53" ry="18"/>
<text text-anchor="middle" x="46.77" y="-15.8" font-family="Times,serif" font-size="9.00">apply force 0!</text>
</g>
<!-- Sequence&#45;&gt;apply force 0! -->
<g id="edge1" class="edge">
<title>Sequence&#45;&gt;apply force 0!</title>
<path fill="none" stroke="black" d="M137.97,-75C121.14,-64.67 98,-50.46 79.24,-38.94"/>
<polygon fill="black" stroke="black" points="81.05,-35.95 70.7,-33.7 77.39,-41.91 81.05,-35.95"/>
</g>
<!-- apply force 0!* -->
<g id="node3" class="node">
<title>apply force 0!*</title>
<ellipse fill="gray" stroke="black" cx="160.77" cy="-18" rx="49.8" ry="18"/>
<text text-anchor="middle" x="160.77" y="-15.8" font-family="Times,serif" font-size="9.00">apply force 0!*</text>
</g>
<!-- Sequence&#45;&gt;apply force 0!* -->
<g id="edge2" class="edge">
<title>Sequence&#45;&gt;apply force 0!*</title>
<path fill="none" stroke="black" d="M160.77,-71.7C160.77,-63.98 160.77,-54.71 160.77,-46.11"/>
<polygon fill="black" stroke="black" points="164.27,-46.1 160.77,-36.1 157.27,-46.1 164.27,-46.1"/>
</g>
<!-- apply force 0!** -->
<g id="node4" class="node">
<title>apply force 0!**</title>
<ellipse fill="gray" stroke="black" cx="280.77" cy="-18" rx="51.92" ry="18"/>
<text text-anchor="middle" x="280.77" y="-15.8" font-family="Times,serif" font-size="9.00">apply force 0!**</text>
</g>
<!-- Sequence&#45;&gt;apply force 0!** -->
<g id="edge3" class="edge">
<title>Sequence&#45;&gt;apply force 0!**</title>
<path fill="none" stroke="black" d="M184.19,-75.34C201.93,-64.99 226.58,-50.61 246.53,-38.97"/>
<polygon fill="black" stroke="black" points="248.45,-41.9 255.33,-33.84 244.93,-35.85 248.45,-41.9"/>
</g>
</g>
</svg>
